<?xml version="1.0" encoding="utf-8"?>
<!-- Generator: Adobe Illustrator 18.1.1, SVG Export Plug-In . SVG Version: 6.00 Build 0)  -->
<svg version="1.1" id="Layer_1" xmlns="http://www.w3.org/2000/svg" xmlns:xlink="http://www.w3.org/1999/xlink" x="0px" y="0px"
	 viewBox="226 -226 512 512" enable-background="new 226 -226 512 512" xml:space="preserve">
<path fill="#BBBBBB" d="M386,14v32c0,8.8-7.2,16-16,16h-32c-8.8,0-16-7.2-16-16V14c0-8.8,7.2-16,16-16h32C378.8-2,386,5.2,386,14z
	 M370,126h-32c-8.8,0-16,7.2-16,16v32c0,8.8,7.2,16,16,16h32c8.8,0,16-7.2,16-16v-32C386,133.2,378.8,126,370,126z M498-2h-32
	c-8.8,0-16,7.2-16,16v32c0,8.8,7.2,16,16,16h32c8.8,0,16-7.2,16-16V14C514,5.2,506.8-2,498-2z M498,126h-32c-8.8,0-16,7.2-16,16v32
	c0,8.8,7.2,16,16,16h32c8.8,0,16-7.2,16-16v-32C514,133.2,506.8,126,498,126z M626-2h-32c-8.8,0-16,7.2-16,16v32c0,8.8,7.2,16,16,16
	h32c8.8,0,16-7.2,16-16V14C642,5.2,634.8-2,626-2z M626,126h-32c-8.8,0-16,7.2-16,16v32c0,8.8,7.2,16,16,16h32c8.8,0,16-7.2,16-16
	v-32C642,133.2,634.8,126,626,126z M338-130h32c8.8,0,16-7.2,16-16v-64c0-8.8-7.2-16-16-16h-32c-8.8,0-16,7.2-16,16v64
	C322-137.2,329.2-130,338-130z M738-98v320c0,35.3-28.7,64-64,64H290c-35.3,0-64-28.7-64-64V-98c0-35.3,28.7-64,64-64h16v16
	c0,17.6,14.4,32,32,32h32c17.6,0,32-14.4,32-32v-16h160v16c0,17.6,14.4,32,32,32h32c17.6,0,32-14.4,32-32v-16h16
	C709.3-162,738-133.3,738-98z M706-34c0-17.6-14.3-32-32-32H290c-17.6,0-32,14.4-32,32v256c0,17.7,14.4,32,32,32h384
	c17.7,0,32-14.3,32-32V-34z M594-130h32c8.8,0,16-7.2,16-16v-64c0-8.8-7.2-16-16-16h-32c-8.8,0-16,7.2-16,16v64
	C578-137.2,585.2-130,594-130z"/>
</svg>
