<?xml version="1.0" encoding="utf-8"?>
<!-- Generator: Adobe Illustrator 18.1.1, SVG Export Plug-In . SVG Version: 6.00 Build 0)  -->
<svg version="1.1" id="Layer_1" xmlns="http://www.w3.org/2000/svg" xmlns:xlink="http://www.w3.org/1999/xlink" x="0px" y="0px"
	 viewBox="10.9 0 38.3 60" enable-background="new 10.9 0 38.3 60" xml:space="preserve">
<path fill="#BBBBBB" d="M30,0C18.8,0,9.7,9.1,9.7,20.3c0,0.2,0,0.5,0,0.7c0.1,2.1,0.5,4.2,1.2,6.1C15.2,41.4,30,60,30,60
	s14.8-18.6,19.1-32.8c0.7-1.9,1.1-4,1.2-6.1c0-0.2,0-0.5,0-0.7C50.3,9.1,41.2,0,30,0z M30,30.3c-5.5,0-10-4.5-10-10
	c0-5.5,4.5-10,10-10c5.5,0,10,4.5,10,10C40,25.8,35.5,30.3,30,30.3z"/>
</svg>
