<?xml version="1.0" encoding="utf-8"?>
<!-- Generator: Adobe Illustrator 18.1.1, SVG Export Plug-In . SVG Version: 6.00 Build 0)  -->
<svg version="1.1" id="Layer_1" xmlns="http://www.w3.org/2000/svg" xmlns:xlink="http://www.w3.org/1999/xlink" x="0px" y="0px"
	 viewBox="0 0 60 60" enable-background="new 0 0 60 60" xml:space="preserve">
<g>
	<g>
		<path fill="#BBBBBB" d="M30,0c-9.7,0-17.6,7.9-17.6,17.6c0,12.6,15.1,28.9,15.7,29.6c0.5,0.5,1.2,0.8,1.9,0.8
			c0.7,0,1.4-0.3,1.9-0.8c0.6-0.7,15.7-17,15.7-29.6C47.6,7.9,39.7,0,30,0z M23.1,17.1c0-3.8,3.1-7,6.9-7s6.9,3.1,6.9,7
			c0,3.8-3.1,6.9-6.9,6.9S23.1,20.9,23.1,17.1z"/>
	</g>
</g>
</svg>
