<?xml version="1.0" encoding="utf-8"?>
<!-- Generator: Adobe Illustrator 18.1.1, SVG Export Plug-In . SVG Version: 6.00 Build 0)  -->
<svg version="1.1" id="Capa_1" xmlns="http://www.w3.org/2000/svg" xmlns:xlink="http://www.w3.org/1999/xlink" x="0px" y="0px"
	 viewBox="0 0 60 60" enable-background="new 0 0 60 60" xml:space="preserve">
<g>
	<path fill="#BBBBBB" d="M48.7,41.3H45c-4.1,0-7.5-3.4-7.5-7.5v-2.4c1.7-2,2.8-4.3,3.6-6.8c0.1-0.4,0.5-0.6,0.7-0.9
		c1.4-1.4,1.7-3.9,0.6-5.6c-0.1-0.3-0.4-0.5-0.4-0.8c0-2.2,0-4.4,0-6.6C42,8,41.3,5.3,39.4,3.3c-1.5-1.6-3.6-2.5-5.7-2.9
		c-2.7-0.5-5.5-0.5-8.2,0.2c-2.3,0.6-4.5,1.9-5.8,3.9c-1.2,1.7-1.7,3.9-1.8,5.9c0,2.2,0,4.5,0,6.7c0,0.4-0.3,0.8-0.5,1.1
		c-1,1.8-0.6,4.4,1.1,5.7c0.4,0.3,0.5,0.8,0.6,1.2c0.7,2.2,1.9,4.3,3.4,6v2.5c0,4.1-3.4,7.5-7.5,7.5h-3.7c0,0-6.8,1.9-11.3,11.3v3.7
		C0,58.3,1.7,60,3.7,60h52.5c2.1,0,3.7-1.7,3.7-3.7v-3.7C55.5,43.1,48.7,41.3,48.7,41.3z"/>
</g>
</svg>
